<?xml version="1.0" encoding="utf-8"?>
<!-- Generator: Adobe Illustrator 16.0.0, SVG Export Plug-In . SVG Version: 6.00 Build 0)  -->
<!DOCTYPE svg PUBLIC "-//W3C//DTD SVG 1.1//EN" "http://www.w3.org/Graphics/SVG/1.1/DTD/svg11.dtd">
<svg version="1.1" id="Ebene_1" xmlns="http://www.w3.org/2000/svg" xmlns:xlink="http://www.w3.org/1999/xlink" x="0px" y="0px"
	 width="177.17px" height="35.187px" viewBox="0 0 177.17 35.187" enable-background="new 0 0 177.17 35.187" xml:space="preserve">
<g>
	<path fill="#C4171B" d="M21.622,19.99c-0.255-4.539-0.51-9.587-0.357-13.462h-0.204c-0.765,3.824-1.683,7.904-2.754,11.933
		l-4.232,16.114h-2.499L7.547,19.123c-1.122-4.386-2.142-8.618-2.805-12.596H4.59c0,4.028-0.204,8.822-0.408,13.717L3.519,34.778H0
		L2.04,0.408h4.232l4.029,15.707c1.173,4.539,2.04,7.904,2.753,11.831h0.153c0.663-3.926,1.428-7.19,2.549-11.831l3.876-15.707
		h4.385l1.989,34.371h-3.671L21.622,19.99z"/>
	<path fill="#C4171B" d="M50.029,17.338c0,12.902-4.437,17.849-9.944,17.849c-5.711,0-9.536-6.069-9.536-17.645
		C30.549,6.17,34.628,0,40.646,0C46.51,0,50.029,6.374,50.029,17.338z M34.628,17.593c0,7.088,1.377,14.125,5.711,14.125
		c4.437,0,5.609-7.497,5.609-14.228c0-6.425-1.173-14.024-5.66-14.024C36.005,3.467,34.628,10.607,34.628,17.593z"/>
	<path fill="#C4171B" d="M55.335,34.778V0.408h3.723l6.323,16.114c1.428,3.672,3.213,8.261,4.386,11.984h0.102
		c-0.306-5.405-0.459-9.842-0.459-15.808V0.408h3.519v34.371h-3.723l-6.527-16.522c-1.377-3.468-2.855-7.394-4.08-11.678h-0.102
		c0.306,4.589,0.408,8.975,0.408,16.318v11.882H55.335z"/>
	<path fill="#C4171B" d="M97.714,17.338c0,12.902-4.437,17.849-9.944,17.849c-5.711,0-9.536-6.069-9.536-17.645
		C78.234,6.17,82.313,0,88.331,0C94.195,0,97.714,6.374,97.714,17.338z M82.313,17.593c0,7.088,1.377,14.125,5.711,14.125
		c4.437,0,5.609-7.497,5.609-14.228c0-6.425-1.173-14.024-5.66-14.024C83.69,3.467,82.313,10.607,82.313,17.593z"/>
	<path fill="#C4171B" d="M102.918,0.408h6.681v28.71h8.822v5.661h-15.502V0.408z"/>
	<path fill="#C4171B" d="M129.59,0.408v34.371h-6.681V0.408H129.59z"/>
	<path fill="#C4171B" d="M139.892,6.578h-6.068v-6.17h18.868v6.17h-6.119v28.2h-6.681V6.578z"/>
	<path fill="#C4171B" d="M163.504,0.408v13.769h6.986V0.408h6.68v34.371h-6.68v-14.38h-6.986v14.38h-6.681V0.408H163.504z"/>
</g>
</svg>
