<?xml version="1.0" encoding="utf-8"?>
<!-- Generator: Adobe Illustrator 16.0.0, SVG Export Plug-In . SVG Version: 6.00 Build 0)  -->
<!DOCTYPE svg PUBLIC "-//W3C//DTD SVG 1.1//EN" "http://www.w3.org/Graphics/SVG/1.1/DTD/svg11.dtd">
<svg version="1.1" id="Ebene_1" xmlns="http://www.w3.org/2000/svg" xmlns:xlink="http://www.w3.org/1999/xlink" x="0px" y="0px"
	 width="1005px" height="1005px" viewBox="0 0 1005 1005" enable-background="new 0 0 1005 1005" xml:space="preserve">
<g>
	<defs>
		<rect id="SVGID_1_" width="1005" height="1005"/>
	</defs>
	<clipPath id="SVGID_2_">
		<use xlink:href="#SVGID_1_"  overflow="visible"/>
	</clipPath>
	<path clip-path="url(#SVGID_2_)" fill="#C30017" d="M295.423,5.962c-53.201,2.511-89.537,11.032-121.29,23.474
		C141.264,42.25,113.4,59.424,85.682,87.256c-27.751,27.848-44.793,55.76-57.51,88.663C15.86,207.752,7.516,244.105,5.167,297.34
		C2.835,350.672,2.3,367.682,2.56,503.456c0.259,135.758,0.858,152.8,3.401,206.148c2.543,53.186,11.033,89.507,23.474,121.275
		c12.831,32.87,29.986,60.719,57.834,88.453c27.832,27.735,55.761,44.762,88.679,57.495c31.801,12.296,68.17,20.671,121.387,23.004
		c53.331,2.35,70.356,2.867,206.098,2.608c135.804-0.259,152.831-0.858,206.161-3.386c53.201-2.544,89.505-11.064,121.289-23.474
		c32.87-12.863,60.733-29.987,88.452-57.836c27.718-27.833,44.761-55.761,57.479-88.68c12.312-31.801,20.687-68.171,23.003-121.355
		c2.333-53.364,2.885-70.407,2.625-206.166c-0.26-135.774-0.874-152.784-3.401-206.099c-2.526-53.234-11.049-89.539-23.475-121.324
		c-12.847-32.87-29.985-60.702-57.817-88.453c-27.832-27.718-55.761-44.794-88.679-57.478
		c-31.817-12.313-68.17-20.704-121.388-23.005c-53.331-2.365-70.356-2.883-206.146-2.624C365.78,2.819,348.754,3.402,295.423,5.962
		 M301.256,909.839c-48.747-2.122-75.217-10.223-92.859-17.011c-23.361-9.039-40.03-19.877-57.575-37.292
		c-17.512-17.48-28.383-34.103-37.503-57.415c-6.853-17.642-15.098-44.08-17.383-92.826c-2.479-52.7-3.045-68.512-3.288-202.018
		c-0.259-133.474,0.226-149.285,2.527-202.033c2.089-48.714,10.239-75.218,17.01-92.844c9.039-23.393,19.845-40.031,37.292-57.575
		c17.48-17.545,34.101-28.383,57.429-37.504c17.626-6.886,44.065-15.067,92.795-17.383c52.73-2.495,68.525-3.029,201.998-3.289
		c133.503-0.259,149.314,0.211,202.063,2.528c48.713,2.122,75.216,10.19,92.826,17.01c23.376,9.039,40.046,19.813,57.575,37.293
		c17.527,17.48,28.398,34.069,37.519,57.446c6.885,17.577,15.066,44.048,17.367,92.762c2.511,52.732,3.078,68.544,3.32,202.017
		c0.259,133.506-0.227,149.318-2.543,202.034c-2.122,48.746-10.206,75.234-17.01,92.893c-9.04,23.345-19.846,40.015-37.31,57.56
		c-17.463,17.479-34.084,28.382-57.429,37.503c-17.594,6.869-44.064,15.066-92.762,17.383c-52.73,2.479-68.526,3.046-202.047,3.289
		C369.797,912.625,354.003,912.123,301.256,909.839 M708.865,235.229c0.064,33.113,26.988,59.925,60.102,59.86
		c33.129-0.065,59.939-26.974,59.892-60.087c-0.065-33.113-26.989-59.941-60.118-59.876S708.8,202.115,708.865,235.229
		 M245.771,502.985c0.275,141.801,115.441,256.499,257.208,256.224c141.782-0.275,256.543-115.41,256.269-257.211
		c-0.276-141.752-115.458-256.515-257.257-256.239C360.223,246.034,245.495,361.218,245.771,502.985 M335.826,502.808
		c-0.162-92.034,74.326-166.797,166.342-166.959c92.033-0.179,166.812,74.277,166.99,166.327
		c0.179,92.05-74.31,166.798-166.358,166.977C410.784,669.33,336.004,594.857,335.826,502.808"/>
</g>
</svg>
