<?xml version="1.0" encoding="utf-8"?>
<!-- Generator: Adobe Illustrator 27.8.0, SVG Export Plug-In . SVG Version: 6.00 Build 0)  -->
<svg version="1.1" id="Ebene_1" xmlns="http://www.w3.org/2000/svg" xmlns:xlink="http://www.w3.org/1999/xlink" x="0px" y="0px"
	 viewBox="0 0 229.31 33.02" style="enable-background:new 0 0 229.31 33.02;" xml:space="preserve">
<style type="text/css">
	.st0{fill:#C4171B;}
</style>
<g>
	<path class="st0" d="M27.49,20.28c-0.15-3.84-0.29-8.41-0.28-13.05h-0.13c-1.01,4.05-2.34,8.56-3.53,12.29l-3.88,12.35h-5.57
		L10.7,19.64c-1.02-3.73-2.07-8.23-2.86-12.4h-0.1c-0.16,4.31-0.33,9.2-0.52,13.14L6.63,32.4H0L2.03,0.72h9.55l3.09,10.59
		c1,3.63,1.98,7.61,2.69,11.33h0.15c0.87-3.67,1.94-7.85,3.01-11.37l3.36-10.54h9.37l1.7,31.68h-6.96L27.49,20.28z"/>
	<path class="st0" d="M70.63,16.24c0,10.39-6.27,16.67-15.53,16.67c-9.39,0-14.92-7.11-14.92-16.14c0-9.47,6.09-16.57,15.42-16.57
		C65.32,0.2,70.63,7.48,70.63,16.24z M47.75,16.64c0,6.21,2.92,10.58,7.7,10.58c4.84,0,7.61-4.57,7.61-10.73
		c0-5.71-2.7-10.59-7.63-10.59C50.58,5.9,47.75,10.48,47.75,16.64z"/>
	<path class="st0" d="M76.53,32.4V0.72h8.34l6.58,11.62c1.9,3.32,3.75,7.29,5.18,10.86l0.12-0.01c-0.44-4.19-0.58-8.45-0.58-13.23
		V0.72h6.57V32.4h-7.5l-6.79-12.2c-1.89-3.42-3.97-7.48-5.5-11.19L82.8,9.02c0.22,4.2,0.31,8.68,0.31,13.85v9.52H76.53z"/>
	<path class="st0" d="M139.11,16.24c0,10.39-6.27,16.67-15.53,16.67c-9.39,0-14.92-7.11-14.92-16.14c0-9.47,6.09-16.57,15.42-16.57
		C133.79,0.2,139.11,7.48,139.11,16.24z M116.23,16.64c0,6.21,2.92,10.58,7.7,10.58c4.84,0,7.61-4.57,7.61-10.73
		c0-5.71-2.7-10.59-7.63-10.59C119.06,5.9,116.23,10.48,116.23,16.64z"/>
	<path class="st0" d="M145.47,0.72h4.09v28.25h13.54v3.43h-17.62V0.72z"/>
	<path class="st0" d="M172.91,0.72V32.4h-4.09V0.72H172.91z"/>
	<path class="st0" d="M187.25,4.2h-9.63V0.72h23.45V4.2h-9.68v28.2h-4.14V4.2z"/>
	<path class="st0" d="M209.86,0.72v13.25h15.32V0.72h4.14V32.4h-4.14V17.54h-15.32V32.4h-4.09V0.72H209.86z"/>
</g>
</svg>
